<?xml version="1.0" encoding="UTF-8" standalone="no"?>
<svg
   xmlns:dc="http://purl.org/dc/elements/1.1/"
   xmlns:cc="http://creativecommons.org/ns#"
   xmlns:rdf="http://www.w3.org/1999/02/22-rdf-syntax-ns#"
   xmlns:svg="http://www.w3.org/2000/svg"
   xmlns="http://www.w3.org/2000/svg"
   id="svg4041"
   version="1.2"
   viewBox="0 0 593.42175 101.54325"
   height="135.39101"
   width="791.229">
  <metadata
     id="metadata4047">
    <rdf:RDF>
      <cc:Work
         rdf:about="">
        <dc:format>image/svg+xml</dc:format>
        <dc:type
           rdf:resource="http://purl.org/dc/dcmitype/StillImage" />
        <dc:title></dc:title>
      </cc:Work>
    </rdf:RDF>
  </metadata>
  <defs
     id="defs4045" />
  <g
     transform="translate(-243.28906,-489.23019)"
     id="surface16665">
    <path
       id="path4018"
       d="m 243.28906,568.08594 v -75.61719 h 6.69922 l 29.8125,46.12891 29.38281,-46.12891 h 6.69922 v 75.61719 h -6.48047 v -64.16797 l -27.76172,42.34765 h -4.10546 l -27.76563,-42.34765 v 64.16797 z m 0,0"
       style="fill:#979999;fill-opacity:1;fill-rule:nonzero;stroke:none" />
    <path
       id="path4020"
       d="m 338.35547,552.09766 c 0,3.67578 1.24219,6.5039 3.73047,8.48046 2.48437,1.98047 5.66797,2.96875 9.55859,2.96875 3.16797,0 6.13672,-0.70312 8.91016,-2.10546 2.77343,-1.40235 5.0039,-3.3125 6.69922,-5.72266 1.6914,-2.41406 2.53906,-5.16797 2.53906,-8.26563 v -4.85937 c -2.23438,-0.86328 -4.66406,-1.53125 -7.29297,-2 -2.62891,-0.46875 -5.05859,-0.69922 -7.29297,-0.69922 -5.83203,0 -10.10156,1.20703 -12.80078,3.61719 -2.69922,2.41406 -4.05078,5.27734 -4.05078,8.58594 m 12.64062,17.07031 c -5.83203,0 -10.51562,-1.51563 -14.04297,-4.53906 -3.53125,-3.02344 -5.29296,-7.09375 -5.29296,-12.20704 0,-3.45703 0.93359,-6.53515 2.80859,-9.23437 1.87109,-2.70313 4.53516,-4.82422 7.99219,-6.375 3.45703,-1.54688 7.52343,-2.32422 12.20703,-2.32422 2.66406,0 5.30859,0.26953 7.9375,0.8125 2.63281,0.53906 5.02344,1.24219 7.1875,2.10547 v -3.45313 c 0,-4.53906 -1.46094,-8.15625 -4.375,-10.85937 -2.91797,-2.69922 -7.00781,-4.05078 -12.26172,-4.05078 -6.48438,0 -12.35156,2.30469 -17.60938,6.91406 l -2.69921,-4.21484 c 2.375,-2.44532 5.45312,-4.44532 9.23828,-5.9961 3.78125,-1.54687 7.68359,-2.32031 11.71875,-2.32031 6.76562,0 12.16797,1.85547 16.20312,5.5625 4.03516,3.71094 6.04688,8.55078 6.04688,14.53125 v 34.56641 h -5.72266 l -0.21484,-9.07422 c -1.65625,2.80859 -4.14453,5.20312 -7.45313,7.18359 -3.3164,1.98047 -7.20312,2.97266 -11.66797,2.97266"
       style="fill:#979999;fill-opacity:1;fill-rule:nonzero;stroke:none" />
    <path
       id="path4022"
       d="m 414.9375,562.25391 c 3.46094,0 6.55469,-0.75782 9.29297,-2.26954 2.73437,-1.51171 4.875,-3.58203 6.42578,-6.21093 1.54687,-2.62891 2.32031,-5.63282 2.32031,-9.02344 v -18.90234 c -2.08594,-2.01563 -4.60937,-3.61719 -7.55859,-4.8086 -2.95313,-1.1875 -6.01563,-1.78125 -9.1836,-1.78125 -3.74609,0 -7.14843,0.90235 -10.20703,2.69922 -3.0625,1.80469 -5.51172,4.35938 -7.34765,7.67188 -1.83594,3.3125 -2.75391,7.20312 -2.75391,11.66796 0,4.17579 0.8125,7.82813 2.43359,10.96485 1.61719,3.13281 3.84766,5.58203 6.69532,7.34375 2.84375,1.76562 6.14062,2.64844 9.88281,2.64844 m -1.51172,28.51953 c -4.60937,0 -9.00391,-0.83203 -13.17969,-2.48828 -4.17578,-1.65625 -7.59765,-3.88672 -10.26172,-6.69532 l 3.34766,-4.32031 c 2.37891,2.375 5.3125,4.28516 8.80469,5.72266 3.49219,1.4414 7.2539,2.16015 11.28906,2.16015 3.60156,0 6.875,-0.64453 9.82813,-1.94531 2.95312,-1.29297 5.3125,-3.22266 7.07812,-5.77734 1.76563,-2.5586 2.64453,-5.70703 2.64453,-9.44922 v -10.26563 c -1.58203,3.09766 -4.01172,5.60157 -7.28906,7.50782 -3.27734,1.91015 -7.03906,2.86328 -11.28906,2.86328 -4.6836,0 -8.9336,-1.09766 -12.7461,-3.29688 -3.82031,-2.1914 -6.84375,-5.27344 -9.07422,-9.23437 -2.23437,-3.95703 -3.35156,-8.57032 -3.35156,-13.82422 0,-5.47656 1.19141,-10.33594 3.56641,-14.58594 2.375,-4.25 5.59765,-7.59766 9.66797,-10.04687 4.07031,-2.44922 8.58593,-3.67188 13.55859,-3.67188 3.23828,0 6.35547,0.53906 9.34375,1.62109 2.98438,1.07813 5.59766,2.69922 7.83203,4.85938 l 0.32422,-5.39844 h 5.72656 v 53.36328 c 0,5.1875 -1.24609,9.46875 -3.73047,12.85547 -2.48046,3.38281 -5.70703,5.90235 -9.66796,7.5586 -3.96094,1.65625 -8.09766,2.48828 -12.42188,2.48828"
       style="fill:#979999;fill-opacity:1;fill-rule:nonzero;stroke:none" />
    <path
       id="path4024"
       d="m 457.17578,514.50781 h 6.26563 v 53.57813 h -6.26563 z m 3.13281,-10.15625 c -1.51172,0 -2.73828,-0.46875 -3.67187,-1.40625 -0.9375,-0.93359 -1.40625,-2.08594 -1.40625,-3.45312 0,-1.36719 0.46875,-2.52344 1.40625,-3.46094 0.93359,-0.93359 2.16015,-1.40234 3.67187,-1.40234 1.51172,0 2.73438,0.46875 3.67188,1.40234 0.9375,0.9375 1.40625,2.09375 1.40625,3.46094 0,1.36718 -0.46875,2.51953 -1.40625,3.45312 -0.9375,0.9375 -2.16016,1.40625 -3.67188,1.40625"
       style="fill:#979999;fill-opacity:1;fill-rule:nonzero;stroke:none" />
    <path
       id="path4026"
       d="m 504.16406,569.16797 c -4.89453,0 -9.3789,-1.13672 -13.44531,-3.40235 -4.07031,-2.27343 -7.34766,-5.49218 -9.83203,-9.66796 -2.48438,-4.17969 -3.72656,-9.11329 -3.72656,-14.80079 0,-5.32812 1.24218,-10.10156 3.72656,-14.3164 2.48437,-4.21094 5.77734,-7.52344 9.88281,-9.9375 4.10938,-2.41016 8.57031,-3.61719 13.39453,-3.61719 4.17969,0 8.01563,0.84766 11.50781,2.53906 3.49219,1.69141 6.35547,3.94141 8.58594,6.75 l -3.45703,3.9961 c -2.30469,-2.30469 -4.85937,-4.1211 -7.66797,-5.45313 -2.8125,-1.33203 -5.79687,-2 -8.96875,-2 -3.60156,0 -6.94922,0.84766 -10.04297,2.53906 -3.09765,1.69532 -5.58593,4.17579 -7.45703,7.45704 -1.87109,3.27343 -2.80859,7.28906 -2.80859,12.04296 0,4.82422 0.9375,8.87891 2.80859,12.15235 1.8711,3.27734 4.33985,5.74219 7.40235,7.39844 3.05859,1.66015 6.42578,2.48828 10.09765,2.48828 2.88281,0 5.76172,-0.61328 8.64453,-1.83985 2.87891,-1.22265 5.54297,-3.09765 7.99219,-5.61718 l 3.45703,3.99609 c -2.23047,2.8125 -5.13281,5.0625 -8.69531,6.75391 -3.56641,1.6914 -7.36719,2.53906 -11.39844,2.53906"
       style="fill:#979999;fill-opacity:1;fill-rule:nonzero;stroke:none" />
    <path
       id="path4028"
       d="m 564.73828,569.16797 c -5.47656,0 -10.76562,-0.9375 -15.87891,-2.8125 -5.11328,-1.8711 -9.4375,-4.42578 -12.96484,-7.66797 l 5.83594,-8.75 c 3.45312,2.73828 7.05469,4.80859 10.80469,6.21094 3.73828,1.40625 7.77343,2.10937 12.09375,2.10937 4.7539,0 8.48046,-0.99219 11.18359,-2.97265 2.69922,-1.98047 4.05078,-4.51954 4.05078,-7.61329 0,-2.66406 -1.01172,-4.89843 -3.02344,-6.69921 -2.01953,-1.80079 -5.33203,-3.3125 -9.9414,-4.53907 l -9.17969,-2.375 c -6.41016,-1.65625 -11.27344,-4.19531 -14.58594,-7.61718 -3.3125,-3.42188 -4.96484,-7.79297 -4.96484,-13.125 0,-4.75 1.23828,-8.76563 3.72265,-12.04297 2.48829,-3.27735 5.83594,-5.74219 10.04688,-7.40235 4.21484,-1.65234 8.83984,-2.48437 13.88281,-2.48437 4.67969,0 9.19531,0.77344 13.55469,2.32422 4.35547,1.55078 8.01172,3.61718 10.96875,6.21093 l -5.08203,8.85938 c -2.51953,-2.01563 -5.45313,-3.60156 -8.80078,-4.75391 -3.35157,-1.15234 -6.89844,-1.72656 -10.64063,-1.72656 -4.60937,0 -8.25,0.87891 -10.91015,2.64453 -2.66407,1.76563 -4,4.19922 -4,7.28906 0,2.52344 0.93359,4.62891 2.80859,6.32032 1.875,1.69531 4.78906,3.04687 8.75,4.05078 l 8.85937,2.27344 c 7.0586,1.87109 12.3711,4.53515 15.9336,7.99218 3.5664,3.45313 5.34765,8.02735 5.34765,13.71875 0,3.89063 -0.79296,7.23438 -2.3789,10.04688 -1.58594,2.80859 -3.72656,5.14844 -6.42578,7.01953 -2.69922,1.875 -5.6875,3.25781 -8.96485,4.16016 -3.28125,0.89843 -6.64453,1.35156 -10.10156,1.35156"
       style="fill:#f0263f;fill-opacity:1;fill-rule:nonzero;stroke:none" />
    <path
       id="path4030"
       d="m 630.3125,569.16797 c -5.18359,0 -9.92188,-1.11719 -14.20703,-3.35156 -4.28516,-2.23047 -7.70703,-5.4336 -10.26172,-9.61329 -2.55469,-4.17578 -3.83594,-9.21875 -3.83594,-15.12109 0,-5.54687 1.31641,-10.44141 3.94531,-14.69141 2.62891,-4.25 6.1211,-7.5664 10.47657,-9.9414 4.35937,-2.375 9.05859,-3.5625 14.10156,-3.5625 4.10156,0 7.89844,0.73828 11.39453,2.21484 3.49219,1.47656 6.35547,3.47266 8.58594,5.9961 l -5.29297,7.66796 c -2.01563,-1.73046 -4.15625,-3.0625 -6.42578,-3.99609 -2.26563,-0.9375 -4.69922,-1.40625 -7.29297,-1.40625 -2.95313,0 -5.69141,0.6875 -8.20703,2.05078 -2.52344,1.3711 -4.57422,3.3711 -6.16016,5.9961 -1.58594,2.6289 -2.375,5.85156 -2.375,9.67187 0,3.88672 0.77344,7.12891 2.32422,9.71875 1.54688,2.59375 3.58203,4.55859 6.10156,5.88672 2.51953,1.33594 5.21875,2 8.10157,2 5.04296,0 9.68359,-1.79688 13.93359,-5.40234 l 5.1875,7.67187 c -2.23438,2.44531 -5.13281,4.42969 -8.69531,5.94141 -3.56641,1.51172 -7.36719,2.26953 -11.39844,2.26953"
       style="fill:#f0263f;fill-opacity:1;fill-rule:nonzero;stroke:none" />
    <path
       id="path4032"
       d="m 688.42578,513.21094 c 1.15234,0 2.27344,0.125 3.35156,0.3789 1.08203,0.25 2.01563,0.5586 2.8086,0.91797 l -2.69922,11.98828 c -1.44141,-1.00781 -3.20703,-1.51172 -5.29297,-1.51172 -3.60156,0 -6.62891,1.31641 -9.07422,3.94141 -2.44922,2.63281 -3.67578,6.5 -3.67578,11.61328 v 27.54688 h -12.3125 v -54.1211 h 11.125 l 0.64844,8.96875 c 1.4414,-3.24218 3.52734,-5.67187 6.26562,-7.29297 2.73438,-1.62109 5.6875,-2.42968 8.85547,-2.42968"
       style="fill:#f0263f;fill-opacity:1;fill-rule:nonzero;stroke:none" />
    <path
       id="path4034"
       d="m 705.99609,513.96484 h 12.31641 v 54.1211 h -12.31641 z m 6.16016,-9.17968 c -2.30469,0 -4.21484,-0.73829 -5.72656,-2.21485 -1.51172,-1.47656 -2.26953,-3.33203 -2.26953,-5.5625 0,-2.23437 0.75781,-4.08594 2.26953,-5.5664 1.51172,-1.47266 3.42187,-2.21094 5.72656,-2.21094 2.30469,0 4.21094,0.73828 5.72266,2.21094 1.51562,1.48046 2.26953,3.33203 2.26953,5.5664 0,2.23047 -0.75391,4.08594 -2.26953,5.5625 -1.51172,1.47656 -3.41797,2.21485 -5.72266,2.21485"
       style="fill:#f0263f;fill-opacity:1;fill-rule:nonzero;stroke:none" />
    <path
       id="path4036"
       d="m 759.36719,559.22656 c 4.24609,0 7.86718,-1.61719 10.85547,-4.85937 2.98828,-3.24219 4.48437,-7.84766 4.48437,-13.82813 0,-5.54297 -1.37109,-9.88281 -4.10547,-13.01562 -2.73828,-3.13282 -6.16015,-4.69922 -10.26172,-4.69922 -4.10547,0 -7.45312,1.40234 -10.04687,4.21484 -2.58985,2.80469 -3.88672,6.3711 -3.88672,10.69141 v 15.88281 c 3.30859,3.74219 7.63281,5.61328 12.96094,5.61328 m -25.27735,30.46485 v -75.72657 h 11.01953 l 0.42969,8.85938 c 1.65625,-3.02344 4.06641,-5.4375 7.23828,-7.23828 3.16797,-1.79688 6.66016,-2.70313 10.47657,-2.70313 4.53906,0 8.64453,1.15625 12.3164,3.46094 3.67578,2.30469 6.57031,5.50781 8.69531,9.61328 2.125,4.10547 3.1875,8.82031 3.1875,14.15234 0,5.83204 -1.17187,10.92969 -3.51171,15.28516 -2.33985,4.35547 -5.45313,7.73828 -9.34375,10.15234 -3.88672,2.41407 -8.17188,3.6211 -12.85547,3.6211 -3.02344,0 -5.85157,-0.46875 -8.47657,-1.40625 -2.63281,-0.9336 -4.91796,-2.375 -6.85937,-4.32031 v 26.25 z m 0,0"
       style="fill:#f0263f;fill-opacity:1;fill-rule:nonzero;stroke:none" />
    <path
       id="path4038"
       d="m 832.60547,555.44922 4.10547,7.88672 c -1.94532,1.72265 -4.17969,3.13281 -6.69922,4.21093 -2.51953,1.08204 -5.32813,1.6211 -8.42578,1.6211 -3.3125,0 -6.39063,-0.66797 -9.23438,-2 -2.84765,-1.33203 -5.13281,-3.36328 -6.85937,-6.10547 -1.73047,-2.73438 -2.59375,-6.22656 -2.59375,-10.47656 v -27.11719 h -8.64063 v -8.74609 h 1.73047 c 3.09375,0 5.37891,-0.82813 6.85547,-2.48829 1.47656,-1.65234 2.43359,-4.14062 2.86719,-7.44921 l 0.7539,-6.16016 h 8.7461 v 15.33984 h 19.01562 v 9.50391 h -19.01562 v 26.03516 c 0,3.24218 0.90234,5.58593 2.70312,7.02343 1.80078,1.44141 3.88672,2.16016 6.26563,2.16016 1.65625,0 3.1875,-0.30469 4.58984,-0.91797 1.40625,-0.60937 2.68359,-1.38281 3.83594,-2.32031"
       style="fill:#f0263f;fill-opacity:1;fill-rule:nonzero;stroke:none" />
  </g>
</svg>
