<?xml version="1.0" encoding="UTF-8" standalone="no"?>
<!-- Created with Inkscape (http://www.inkscape.org/) -->

<svg
   xmlns:dc="http://purl.org/dc/elements/1.1/"
   xmlns:cc="http://creativecommons.org/ns#"
   xmlns:rdf="http://www.w3.org/1999/02/22-rdf-syntax-ns#"
   xmlns:svg="http://www.w3.org/2000/svg"
   xmlns="http://www.w3.org/2000/svg"
   version="1.1"
   width="256"
   height="256"
   id="svg3466"
   xml:space="preserve"><metadata
     id="metadata3472"><rdf:RDF><cc:Work
         rdf:about=""><dc:format>image/svg+xml</dc:format><dc:type
           rdf:resource="http://purl.org/dc/dcmitype/StillImage" /><dc:title></dc:title></cc:Work></rdf:RDF></metadata><defs
     id="defs3470"><clipPath
       id="clipPath3484"><path
         d="m 0,1080 1920,0 L 1920,0 0,0 0,1080 z"
         id="path3486" /></clipPath><clipPath
       id="clipPath3532"><path
         d="m 937.304,785.688 c 5.87,0 8.34,-3.018 10.991,-7.553 l 0,0 c 1.101,-1.884 1.966,-3.851 2.741,-5.883 l 0,0 c 2.013,-5.272 3.337,-10.676 4.504,-16.17 l 0,0 c 3.542,-16.672 5.339,-33.458 6.759,-50.385 l 0,0 c 2.46,-29.338 3.404,-58.654 3.406,-88.078 l 0,0 c 0.002,-29.425 -0.946,-58.74 -3.406,-88.078 l 0,0 c -1.42,-16.928 -3.217,-33.714 -6.759,-50.385 l 0,0 c -1.167,-5.495 -2.491,-10.899 -4.504,-16.172 l 0,0 c -0.775,-2.031 -1.64,-3.998 -2.741,-5.881 l 0,0 c -2.652,-4.536 -5.129,-7.549 -10.999,-7.553 l 0,0 213.983,0 0,336.138 -213.975,0 z m -0.008,0 0.008,0 c -0.003,0 -0.005,0 -0.008,0"
         id="path3534" /></clipPath><clipPath
       id="clipPath3556"><path
         d="m 768.721,766.528 0,-297.818 168.776,0 c 0,0.001 0,0.004 0.002,0.009 l 0,0 c 6.426,16.871 10.071,62.893 10.675,71.156 l 0,0 c 1.897,25.912 2.642,51.808 2.644,77.78 l 0,0 c -0.002,25.971 -0.747,51.868 -2.644,77.78 l 0,0 c -0.6,8.208 -4.202,53.685 -10.549,70.821 l 0,0 c -0.048,0.13 0,0.272 0,0.272 l 0,0 -168.904,0 z M 937.497,468.71 c 0,-10e-4 0.002,0 0.002,0 l 0,0 -0.002,0 z"
         id="path3558" /></clipPath><clipPath
       id="clipPath3604"><path
         d="m 0,1080 1920,0 L 1920,0 0,0 0,1080 z"
         id="path3606" /></clipPath></defs><g
     transform="matrix(0.63367778,0,0,0.60927356,-107.06097,-6.0927383)"
     id="g3125"><g
       transform="matrix(1.25,0,0,-1.25,366.10588,317.31126)"
       id="g3524"><path
         d="m 0,0 c -0.604,-8.263 -4.249,-54.283 -10.675,-71.155 -0.005,-0.014 -0.023,-0.013 -0.029,0 -12.02,31.54 -13.697,117.219 -13.696,148.935 -0.001,31.604 1.664,116.794 13.57,148.6 0.049,0.129 0.232,0.131 0.28,0.002 C -4.202,209.246 -0.601,163.768 0,155.56 1.897,129.648 2.642,103.751 2.643,77.78 2.642,51.809 1.897,25.912 0,0 m 14.125,165.857 c -1.42,16.929 -3.217,33.715 -6.759,50.386 -1.167,5.494 -2.492,10.898 -4.504,16.171 -0.775,2.031 -1.641,3.999 -2.742,5.882 -2.652,4.537 -5.128,7.549 -10.998,7.553 -5.875,0.003 -8.348,-3.016 -10.999,-7.553 -1.102,-1.884 -1.967,-3.851 -2.742,-5.882 -2.012,-5.273 -3.337,-10.677 -4.504,-16.171 -3.542,-16.671 -5.339,-33.457 -6.758,-50.386 -2.461,-29.337 -3.408,-58.652 -3.407,-88.077 -0.001,-29.426 0.946,-58.74 3.407,-88.078 1.419,-16.928 3.216,-33.714 6.758,-50.385 1.167,-5.495 2.492,-10.898 4.504,-16.171 0.775,-2.032 1.64,-3.999 2.742,-5.882 2.651,-4.536 5.124,-7.556 10.999,-7.553 5.87,0.003 8.346,3.017 10.998,7.553 1.101,1.883 1.967,3.85 2.742,5.882 2.012,5.273 3.337,10.676 4.504,16.171 3.542,16.671 5.339,33.457 6.759,50.385 2.459,29.338 3.408,58.652 3.406,88.078 0.002,29.425 -0.947,58.74 -3.406,88.077"
         id="path3526"
         style="fill:#f12742;fill-opacity:1;fill-rule:nonzero;stroke:none" /></g><g
       transform="matrix(1.25,0,0,-1.25,-819.112,992.10988)"
       id="g3528"><g
         clip-path="url(#clipPath3532)"
         id="g3530"><g
           transform="translate(959.7324,606.0786)"
           id="g3536"><path
             d="m 0,0 70.229,0 35.114,60.819 -70.229,0 L 0,0 z"
             id="path3538"
             style="fill:#a17bc3;fill-opacity:1;fill-rule:nonzero;stroke:none" /></g><g
           transform="translate(924.6187,666.8984)"
           id="g3540"><path
             d="M 0,0 0,0 35.114,-60.82 70.228,0 35.114,60.819 0,0 z"
             id="path3542"
             style="fill:#8a60b2;fill-opacity:1;fill-rule:nonzero;stroke:none" /></g><g
           transform="translate(959.7329,727.7173)"
           id="g3544"><path
             d="m 0,0 35.114,-60.819 70.228,0 L 70.229,0 70.228,0 0,0 z"
             id="path3546"
             style="fill:#b896d4;fill-opacity:1;fill-rule:nonzero;stroke:none" /></g><g
           transform="translate(1052.126,566.3311)"
           id="g3548"><path
             d="m 0,0 c 0,-32.407 -26.271,-58.679 -58.68,-58.679 -32.407,0 -58.679,26.272 -58.679,58.679 0,32.408 26.272,58.679 58.679,58.679 C -26.271,58.679 0,32.408 0,0"
             id="path3550"
             style="fill:#fedd00;fill-opacity:1;fill-rule:nonzero;stroke:none" /></g></g></g><g
       transform="matrix(1.25,0,0,-1.25,-819.112,992.10988)"
       id="g3552"><g
         clip-path="url(#clipPath3556)"
         id="g3554"><path
           d="m 858.827,610.185 -68.376,0 0,14.815 68.376,0 0,-14.815 z"
           id="path3560"
           style="fill:#3e4143;fill-opacity:1;fill-rule:nonzero;stroke:none" /><path
           d="m 944.737,610.185 -46.77,0 0,14.815 46.77,0 0,-14.815 z"
           id="path3562"
           style="fill:#3e4143;fill-opacity:1;fill-rule:nonzero;stroke:none" /><path
           d="m 823.698,644.026 -33.247,0 0,14.815 33.247,0 0,-14.815 z"
           id="path3564"
           style="fill:#3e4143;fill-opacity:1;fill-rule:nonzero;stroke:none" /><path
           d="m 943.778,644.026 -81.04,0 0,14.815 81.04,0 0,-14.815 z"
           id="path3566"
           style="fill:#3e4143;fill-opacity:1;fill-rule:nonzero;stroke:none" /><g
           transform="translate(851.4033,651.4341)"
           id="g3568"><path
             d="m 0,0 c 0,-4.5 -3.648,-8.148 -8.148,-8.148 -4.501,0 -8.149,3.648 -8.149,8.148 0,4.5 3.648,8.148 8.149,8.148 C -3.648,8.148 0,4.5 0,0"
             id="path3570"
             style="fill:#3e4143;fill-opacity:1;fill-rule:nonzero;stroke:none" /></g><g
           transform="translate(886.5566,617.5928)"
           id="g3572"><path
             d="m 0,0 c 0,-4.5 -3.648,-8.148 -8.148,-8.148 -4.5,0 -8.149,3.648 -8.149,8.148 0,4.5 3.649,8.148 8.149,8.148 C -3.648,8.148 0,4.5 0,0"
             id="path3574"
             style="fill:#3e4143;fill-opacity:1;fill-rule:nonzero;stroke:none" /></g><g
           transform="translate(832.8877,583.7515)"
           id="g3576"><path
             d="m 0,0 c 0,-4.5 -3.648,-8.148 -8.148,-8.148 -4.501,0 -8.149,3.648 -8.149,8.148 0,4.5 3.648,8.148 8.149,8.148 C -3.648,8.148 0,4.5 0,0"
             id="path3578"
             style="fill:#3e4143;fill-opacity:1;fill-rule:nonzero;stroke:none" /></g><g
           transform="translate(945.4443,583.7515)"
           id="g3580"><path
             d="m 0,0 c 0,-4.5 -3.648,-8.148 -8.148,-8.148 -4.501,0 -8.149,3.648 -8.149,8.148 0,4.5 3.648,8.148 8.149,8.148 C -3.648,8.148 0,4.5 0,0"
             id="path3582"
             style="fill:#3e4143;fill-opacity:1;fill-rule:nonzero;stroke:none" /></g><path
           d="m 917.696,576.344 -73.477,0 0,14.815 73.477,0 0,-14.815 z"
           id="path3584"
           style="fill:#3e4143;fill-opacity:1;fill-rule:nonzero;stroke:none" /><path
           d="m 805.267,576.344 -14.815,0 0,14.815 14.815,0 0,-14.815 z"
           id="path3586"
           style="fill:#3e4143;fill-opacity:1;fill-rule:nonzero;stroke:none" /><path
           d="m 873.782,542.554 -83.331,0 0,14.815 83.331,0 0,-14.815 z"
           id="path3588"
           style="fill:#3e4143;fill-opacity:1;fill-rule:nonzero;stroke:none" /><g
           transform="translate(884.4487,540.4443)"
           id="g3590"><path
             d="M 0,0 9.517,9.516 -0.002,19.035 4.283,23.32 18.087,9.516 4.285,-4.285 0,0 z"
             id="path3592"
             style="fill:#3e4143;fill-opacity:1;fill-rule:nonzero;stroke:none" /></g><path
           d="m 902.505,677.779 -85.675,0 0,14.815 85.675,0 0,-14.815 z"
           id="path3594"
           style="fill:#3e4143;fill-opacity:1;fill-rule:nonzero;stroke:none" /><g
           transform="translate(808.5376,694.7041)"
           id="g3596"><path
             d="M 0,0 -9.516,-9.516 0.002,-19.035 -4.283,-23.32 -18.086,-9.516 -4.285,4.285 0,0 z"
             id="path3598"
             style="fill:#3e4143;fill-opacity:1;fill-rule:nonzero;stroke:none" /></g></g></g><g
       transform="matrix(1.25,0,0,-1.25,-819.112,992.10988)"
       id="g3600"><g
         clip-path="url(#clipPath3604)"
         id="g3602"><g
           transform="translate(1059.3623,607.7861)"
           id="g3608"><path
             d="m 0,0 c 13.694,1.916 24.53,12.751 26.446,26.446 0.053,0.379 0.55,0.379 0.603,0 C 28.965,12.751 39.801,1.916 53.495,0 c 0.379,-0.053 0.379,-0.55 0,-0.604 -13.694,-1.916 -24.53,-12.751 -26.446,-26.445 -0.053,-0.379 -0.55,-0.379 -0.603,0 C 24.53,-13.355 13.694,-2.52 0,-0.604 -0.379,-0.55 -0.379,-0.053 0,0"
             id="path3610"
             style="fill:#fedd00;fill-opacity:1;fill-rule:nonzero;stroke:none" /></g><g
           transform="translate(1066.8906,541.2192)"
           id="g3612"><path
             d="m 0,0 c 6.506,1.256 11.633,6.383 12.889,12.889 0.069,0.357 0.523,0.357 0.591,0 C 14.737,6.383 19.864,1.256 26.37,0 c 0.357,-0.069 0.357,-0.523 0,-0.592 -6.506,-1.256 -11.633,-6.383 -12.89,-12.889 -0.068,-0.356 -0.522,-0.356 -0.591,0 C 11.633,-6.975 6.506,-1.848 0,-0.592 -0.356,-0.523 -0.356,-0.069 0,0"
             id="path3614"
             style="fill:#fedd00;fill-opacity:1;fill-rule:nonzero;stroke:none" /></g><g
           transform="translate(1087.0059,667.1938)"
           id="g3616"><path
             d="m 0,0 c 6.506,1.256 11.633,6.383 12.889,12.889 0.069,0.356 0.523,0.356 0.591,0 C 14.737,6.383 19.864,1.256 26.37,0 c 0.357,-0.069 0.357,-0.523 0,-0.592 -6.506,-1.256 -11.633,-6.383 -12.89,-12.889 -0.068,-0.356 -0.522,-0.356 -0.591,0 C 11.633,-6.975 6.506,-1.848 0,-0.592 -0.356,-0.523 -0.356,-0.069 0,0"
             id="path3618"
             style="fill:#b896d4;fill-opacity:1;fill-rule:nonzero;stroke:none" /></g><g
           transform="translate(1027.1924,490.5439)"
           id="g3620"><path
             d="m 0,0 c 9.999,1.621 17.894,9.517 19.515,19.515 0.06,0.372 0.55,0.372 0.611,0 C 21.747,9.517 29.643,1.621 39.641,0 c 0.372,-0.061 0.372,-0.551 0,-0.611 -9.998,-1.621 -17.894,-9.516 -19.515,-19.515 -0.061,-0.372 -0.551,-0.372 -0.611,0 C 17.894,-10.127 9.999,-2.232 0,-0.611 -0.372,-0.551 -0.372,-0.061 0,0"
             id="path3622"
             style="fill:#fedd00;fill-opacity:1;fill-rule:nonzero;stroke:none" /></g><g
           transform="translate(1053.668,725.0361)"
           id="g3624"><path
             d="m 0,0 c 9.998,1.621 17.894,9.516 19.515,19.515 0.06,0.372 0.55,0.372 0.611,0 C 21.747,9.516 29.642,1.621 39.641,0 c 0.372,-0.061 0.372,-0.551 0,-0.611 -9.999,-1.621 -17.894,-9.516 -19.515,-19.515 -0.061,-0.373 -0.551,-0.373 -0.611,0 C 17.894,-10.127 9.998,-2.232 0,-0.611 -0.372,-0.551 -0.372,-0.061 0,0"
             id="path3626"
             style="fill:#b896d4;fill-opacity:1;fill-rule:nonzero;stroke:none" /></g></g></g></g></svg>